{"title":"Satin.2011.DVDRip.Xvid.AC3-THC","uid":6228512,"size":1712377849,"categoryP":"video","categoryS":"movies","magnet":"?xt=urn:btih:fc62540f7d8c60b4120e95b3cc5471e92d9e56f3&amp;dn=Satin.2011.DVDRip.Xvid.AC3-THC&amp;tr=udp%3A%2F%2Ftracker.openbittorrent.com%3A80&amp;tr=udp%3A%2F%2Fopen.demonii.com%3A1337&amp;tr=udp%3A%2F%2Ftracker.coppersurfer.tk%3A6969&amp;tr=udp%3A%2F%2Fexodus.desync.com%3A6969","seeders":0,"leechers":1,"uploader":"sceneline","files":117,"time":1299610306,"description":"-\nhttp:// www . torrentkit. com        \nhttp:// www .torrentkit. com       the fast  and The Hottest Private Tracker on the net\n\nPlease Seed back to make the speed Faster!!!\n\nand don't forget to visit      ...... www .torrentkit .com..........\n-General\nComplete name : H:\\Satin 2011 DVDRip Xvid AC3-THC\\Satin 2011 DVDRip Xvid AC3-THC.avi\nFormat : AVI\nFormat/Info : Audio Video Interleave\nFile size : 1.57 GiB\nDuration : 1h 24mn\nOverall bit rate : 2 674 Kbps\n\nVideo\nID : 0\nFormat : MPEG-4 Visual\nFormat profile : Advanced Simple@L5\nFormat settings, BVOP : 2\nFormat settings, QPel : Yes\nFormat settings, GMC : No warppoints\nFormat settings, Matrix : Default (MPEG)\nCodec ID : XVID\nCodec ID/Hint : XviD\nDuration : 1h 24mn\nBit rate : 2 474 Kbps\nWidth : 720 pixels\nHeight : 304 pixels\nDisplay aspect ratio : 2.35:1\nFrame rate : 23.976 fps\nColor space : YUV\nChroma subsampling : 4:2:0\nBit depth : 8 bits\nScan type : Progressive\nCompression mode : Lossy\nBits/(Pixel*Frame) : 0.471\nStream size : 1.45 GiB (93%)\nWriting library : XviD 62\n\nAudio\nID : 1\nFormat : AC-3\nFormat/Info : Audio Coding 3\nMode extension : CM (complete main)\nCodec ID : 2000\nDuration : 1h 24mn\nBit rate mode : Constant\nBit rate : 192 Kbps\nChannel(s) : 2 channels\nChannel positions : Front: L R\nSampling rate : 48.0 KHz\nBit depth : 16 bits\nCompression mode : Lossy\nStream size : 116 MiB (7%)\nAlignment : Aligned on interleaves\nInterleave, duration : 64 ms (1.53 video frames)\nInterleave, preload duration : 192 ms\nTitle : VTS_01_1 T80 2_0ch 192Kbps DELAY 0ms english\n\nActors: Melissa Joan Hart, Robert Guillaume\nLanguage: English\nRated: Unrated\nStudio: Monarch Home Video\nDVD Release Date: March 1, 2011\nRun Time: 94 minutes\n\nSample Included: Yes\nEncoder: Freebee269","torrent":{"xt":"urn:btih:fc62540f7d8c60b4120e95b3cc5471e92d9e56f3","amp;dn":"Satin.2011.DVDRip.Xvid.AC3-THC","amp;tr":["udp%3A%2F%2Ftracker.openbittorrent.com%3A80","udp%3A%2F%2Fopen.demonii.com%3A1337","udp%3A%2F%2Ftracker.coppersurfer.tk%3A6969","udp%3A%2F%2Fexodus.desync.com%3A6969"],"infoHash":"fc62540f7d8c60b4120e95b3cc5471e92d9e56f3","infoHashBuffer":{"type":"Buffer","data":[252,98,84,15,125,140,96,180,18,14,149,179,204,84,113,233,45,158,86,243]},"announce":[],"urlList":[]}}